<?xml version="1.0" standalone="no"?>
<!DOCTYPE svg PUBLIC "-//W3C//DTD SVG 20010904//EN"
 "http://www.w3.org/TR/2001/REC-SVG-20010904/DTD/svg10.dtd">
<svg version="1.0" xmlns="http://www.w3.org/2000/svg"
 width="1280.000000pt" height="640.000000pt" viewBox="0 0 1280.000000 640.000000"
 preserveAspectRatio="xMidYMid meet">
<metadata>
Created by potrace 1.15, written by Peter Selinger 2001-2017
</metadata>
<g transform="translate(0.000000,640.000000) scale(0.100000,-0.100000)"
fill="#000000" stroke="none">
<path d="M962 5115 c-2 -5 -7 -73 -12 -150 -4 -77 -12 -164 -16 -192 -7 -55
-24 -73 -24 -26 0 18 -3 24 -10 17 -6 -6 -13 -55 -17 -109 -5 -79 -10 -103
-25 -115 -16 -14 -18 -36 -21 -250 l-2 -235 -23 -3 c-14 -2 -27 -14 -33 -28
-5 -14 -9 -166 -9 -339 l0 -315 -27 -6 c-16 -3 -33 -7 -39 -9 -19 -6 -24 -98
-24 -440 0 -181 -3 -340 -6 -352 -5 -17 -14 -23 -34 -23 -18 0 -29 -6 -32 -18
-4 -14 -17 -18 -66 -19 -34 -1 -64 2 -67 7 -11 18 -35 10 -35 -10 0 -11 5 -20
10 -20 18 0 11 -18 -9 -25 -11 -3 -22 -19 -26 -35 -5 -23 -12 -30 -31 -30
l-25 0 3 308 3 307 -35 6 c-27 4 -31 7 -17 13 27 13 20 23 -25 38 l-43 13 -3
203 c-2 150 -6 209 -16 225 -8 12 -16 34 -20 49 -3 15 -15 32 -26 38 -11 6
-20 19 -20 30 0 25 -41 46 -108 53 l-52 6 0 -1182 c0 -650 3 -1192 6 -1204 l6
-23 6318 0 c3474 0 6350 3 6391 6 l74 7 -3 1064 c-2 976 -4 1065 -18 1059 -30
-11 -44 13 -44 74 0 67 -4 70 -106 70 -43 0 -65 5 -74 16 -17 19 -112 10 -150
-15 -34 -22 -191 -19 -227 5 -21 13 -30 14 -51 4 -14 -6 -78 -15 -141 -20 -64
-5 -177 -14 -251 -21 -165 -14 -161 -14 -183 -4 -17 7 -18 2 -16 -56 3 -57 1
-65 -19 -74 -21 -9 -21 -12 -24 -345 -3 -303 -5 -339 -22 -372 -10 -21 -22
-38 -27 -38 -5 0 -9 30 -9 68 1 37 -2 114 -5 172 -3 58 -8 389 -10 735 -3 347
-7 635 -9 641 -2 6 -31 16 -64 23 -47 9 -61 16 -65 33 -5 19 -8 20 -23 8 -14
-12 -18 -12 -31 5 -16 22 -61 25 -212 10 -67 -6 -85 -12 -88 -25 -3 -12 -25
-22 -71 -32 -56 -12 -67 -18 -65 -34 1 -10 5 -342 9 -736 7 -661 6 -719 -10
-742 -16 -26 -49 -34 -72 -18 -13 8 -13 13 -17 302 -3 185 -5 210 -25 252 -11
26 -26 67 -32 90 -14 54 -53 114 -79 123 -29 9 -67 120 -76 219 -1 11 -7 22
-13 24 -8 2 -12 -14 -12 -54 0 -54 -5 -66 -75 -183 -73 -124 -109 -203 -98
-215 4 -3 -1 -14 -10 -24 -14 -15 -17 -50 -19 -233 l-3 -214 -45 0 -45 0 -3
245 c-1 135 -6 353 -10 485 l-7 239 -25 6 -25 6 -3 188 c-2 143 -5 187 -15
183 -9 -3 -13 -54 -15 -190 l-2 -186 -37 -3 c-30 -2 -38 -8 -43 -28 -5 -23
-10 -25 -69 -26 -38 -1 -66 -7 -71 -14 -4 -7 -5 -191 -2 -410 3 -218 2 -408
-1 -421 -6 -22 -12 -24 -74 -27 -90 -4 -101 -8 -105 -40 l-3 -27 -99 3 c-71 2
-105 7 -116 17 -21 19 -84 19 -100 0 -8 -9 -29 -15 -56 -15 -71 0 -78 -14 -70
-147 3 -62 4 -113 1 -113 -3 0 -22 19 -43 42 -145 165 -176 193 -214 195 -36
1 -38 0 -101 -100 -36 -56 -70 -113 -77 -126 -11 -22 -14 -23 -25 -8 -7 9 -27
20 -45 23 -17 4 -43 18 -57 31 -25 26 -27 26 -135 7 l-36 -6 -4 74 c-2 40 1
115 6 166 6 56 6 96 0 101 -5 5 -32 4 -61 -2 -45 -9 -58 -8 -89 7 -36 17 -37
16 -60 -5 -17 -16 -30 -20 -49 -15 -25 6 -26 5 -20 -23 7 -34 -13 -51 -64 -51
-27 0 -30 -3 -33 -37 -2 -21 -7 -38 -13 -38 -5 0 -68 6 -140 13 -107 11 -148
11 -230 0 l-100 -13 3 -35 c2 -26 -2 -41 -17 -55 -12 -10 -26 -37 -32 -59 -15
-61 -33 -96 -44 -93 -14 5 -25 84 -18 135 5 38 2 47 -23 73 -24 25 -35 29 -85
29 -59 0 -87 16 -76 44 3 8 0 22 -7 31 -10 14 -32 17 -154 16 -147 0 -208 -6
-229 -24 -9 -6 -13 -39 -13 -99 0 -72 -3 -90 -16 -95 -9 -3 -20 0 -25 8 -5 8
-9 195 -9 417 0 387 -1 402 -19 402 -26 0 -39 19 -43 65 -2 34 -6 39 -23 37
-11 -2 -69 -12 -130 -22 -72 -13 -113 -16 -121 -9 -20 16 -25 -48 -23 -255 2
-105 -1 -197 -5 -204 -5 -8 0 -12 16 -12 23 -1 23 -1 3 -16 -19 -14 -19 -16
-2 -25 22 -13 24 -79 2 -79 -9 0 -15 9 -15 25 0 37 -20 30 -21 -7 0 -28 -2
-30 -9 -12 -7 18 -50 54 -64 54 -3 0 -7 -10 -9 -22 l-4 -23 -2 23 c-1 17 -7
22 -30 22 -25 0 -30 -4 -33 -27 -3 -27 -4 -28 -63 -26 -58 3 -182 19 -218 30
-10 2 -22 14 -26 25 -6 17 -18 20 -106 23 -65 3 -101 9 -107 17 -6 10 -10 10
-16 1 -4 -6 -21 -15 -37 -19 -17 -4 -34 -10 -40 -14 -5 -4 -71 -13 -145 -20
-95 -8 -137 -16 -143 -26 -13 -23 -24 -17 -72 45 -63 83 -72 91 -105 91 -15 0
-30 6 -33 14 -3 8 -18 16 -34 18 l-28 3 -3 113 c-3 111 -3 113 -29 123 -38 14
-353 5 -384 -11 -13 -7 -50 -14 -82 -16 -53 -3 -95 -19 -82 -32 3 -3 -1 -12
-8 -20 -9 -11 -12 -95 -12 -336 l0 -321 -29 -3 c-16 -2 -33 2 -38 10 -5 7 -8
51 -6 98 l3 85 -42 3 c-29 2 -46 9 -52 21 -8 14 -28 19 -102 24 -51 4 -98 12
-105 18 -11 9 -14 50 -14 175 0 100 -4 165 -10 169 -6 4 -54 11 -108 16 -53 6
-121 17 -149 25 -29 8 -76 18 -105 21 -29 3 -57 12 -61 19 -10 18 -34 18 -44
0 -4 -7 -26 -16 -48 -19 -145 -20 -233 -34 -243 -41 -9 -5 -12 -87 -12 -316 0
-328 -3 -348 -44 -298 -12 14 -30 28 -41 30 -14 2 -23 15 -29 44 -8 38 -13 42
-40 43 -17 1 -40 2 -51 3 -11 1 -30 -2 -43 -6 -21 -7 -22 -5 -22 42 0 32 -5
54 -15 62 -8 7 -15 29 -15 50 l0 38 -57 4 c-36 3 -73 0 -97 -8 -21 -8 -57 -14
-80 -14 -64 0 -185 -26 -205 -44 -18 -16 -19 -10 -26 181 l-7 198 -32 0 c-25
0 -31 4 -29 19 1 11 -9 33 -23 49 -18 22 -24 40 -24 78 0 27 -4 49 -10 49 -5
0 -10 18 -10 40 0 22 -4 40 -10 40 -10 0 -16 -71 -12 -151 3 -58 -20 -73 -90
-57 -40 10 -47 15 -52 42 -3 17 -13 58 -20 91 l-14 60 -1 -87 c-1 -81 -3 -89
-25 -104 -16 -10 -26 -27 -28 -47 -3 -27 -7 -32 -29 -32 -27 1 -27 -1 -35 -85
-4 -47 -8 -138 -8 -203 -1 -102 -3 -120 -18 -128 -16 -9 -18 -28 -18 -165 0
-120 -3 -155 -12 -152 -9 3 -14 39 -16 124 -1 65 -7 123 -12 128 -6 6 -10 24
-10 42 0 17 -6 36 -12 42 -23 19 -204 35 -259 23 -27 -6 -76 -11 -107 -11 -31
0 -62 -4 -68 -8 -8 -6 -16 -111 -14 -192 2 -67 -3 -236 -6 -242 -7 -11 -146 2
-161 15 -7 5 -13 26 -13 47 0 21 -7 43 -15 50 -18 15 -19 43 -4 72 14 27 -4
94 -32 117 -18 15 -19 34 -22 311 l-2 295 -25 1 c-51 1 -50 -6 -50 335 l0 319
-24 0 c-13 0 -26 7 -30 15 -3 8 -16 15 -30 15 -58 0 -56 -10 -56 265 0 238 -1
253 -19 258 -15 4 -19 15 -20 63 -1 81 -9 114 -26 108 -7 -3 -15 -1 -19 4 -3
5 -7 77 -9 160 -6 175 -19 218 -29 92 -5 -65 -25 -279 -28 -298 0 -2 -4 0 -10
3 -5 3 -10 25 -10 48 0 23 -5 58 -11 77 -7 19 -15 96 -19 170 -3 74 -7 131 -8
125z"/>
</g>
</svg>
